<?xml version="1.0" encoding="utf-8"?>
<!-- Generator: Adobe Illustrator 23.0.5, SVG Export Plug-In . SVG Version: 6.00 Build 0)  -->
<svg version="1.1" id="Layer_1" xmlns="http://www.w3.org/2000/svg" xmlns:xlink="http://www.w3.org/1999/xlink" x="0px" y="0px"
	 viewBox="0 0 750 500" style="enable-background:new 0 0 750 500;" xml:space="preserve">
<style type="text/css">
	.st0{fill:url(#SVGID_1_);}
	.st1{clip-path:url(#SVGID_3_);}
	.st2{opacity:0.85;}
	.st3{opacity:0.4;}
	.st4{fill:#1E1E1E;}
	.st5{opacity:0.1;}
	.st6{fill:#F7F7F7;}
	.st7{fill:url(#SVGID_4_);}
	.st8{clip-path:url(#SVGID_6_);}
	.st9{opacity:0.9;}
	.st10{opacity:0.2;}
	.st11{fill:url(#SVGID_7_);}
	.st12{clip-path:url(#SVGID_9_);}
	.st13{opacity:0.49;}
	.st14{fill:#A0A0A0;}
	.st15{fill:url(#SVGID_10_);}
	.st16{clip-path:url(#SVGID_12_);}
	.st17{opacity:0.75;}
	.st18{fill:url(#SVGID_13_);}
	.st19{clip-path:url(#SVGID_15_);}
	.st20{fill:url(#SVGID_16_);}
	.st21{clip-path:url(#SVGID_18_);}
	.st22{fill:url(#SVGID_19_);}
	.st23{clip-path:url(#SVGID_21_);}
	.st24{fill:url(#SVGID_22_);}
	.st25{clip-path:url(#SVGID_24_);}
	.st26{clip-path:url(#SVGID_26_);}
	.st27{fill:url(#SVGID_27_);}
</style>
<g id="BACKGROUND">
	
		<linearGradient id="SVGID_1_" gradientUnits="userSpaceOnUse" x1="375" y1="526.668" x2="375" y2="-0.532" gradientTransform="matrix(1 0 0 -1 0 502)">
		<stop  offset="0" style="stop-color:#FFFFFF"/>
		<stop  offset="1" style="stop-color:#EFF0F2"/>
	</linearGradient>
	<rect class="st0" width="750" height="500"/>
</g>
<g id="OBJECTS">
	<g>
		<g>
			<defs>
				<rect id="SVGID_2_" width="750" height="500"/>
			</defs>
			<clipPath id="SVGID_3_">
				<use xlink:href="#SVGID_2_"  style="overflow:visible;"/>
			</clipPath>
			<g class="st1">
				<g class="st2">
					
						<image style="overflow:visible;enable-background:new    ;" width="3958" height="1938" xlink:href="95B10395.png"  transform="matrix(0.2393 0 0 0.2393 -66.8495 11.935)">
					</image>
				</g>
				<g>
					<g class="st3">
						<path class="st4" d="M-15.2,146.2c182.6,0,253.1-88.8,350.9-88.8c73.7,0,104.3,64,175.4,64c71.2,0,118.6-59.4,177.1-73.6
							c93.8-22.6,104.2,40,173.8,73.5v322.6H-15.2V146.2z"/>
						<path class="st4" d="M-16.2,148.2c182.6,0,253.1-88.8,350.9-88.8c73.7,0,104.3,64,175.4,64c71.2,0,118.6-59.4,177.1-73.6
							c93.8-22.6,104.2,40,173.8,73.5v322.6H-16.2V148.2z"/>
					</g>
					<g>
						<g>
							<g class="st5">
								<path class="st6" d="M-18.2,141.2c182.6,0,253.1-88.8,350.9-88.8c73.7,0,104.3,64,175.4,64c71.2,0,118.6-59.4,177.1-73.6
									c93.8-22.6,104.2,40,173.8,73.5v322.6H-18.2V141.2z"/>
							</g>
							
								<linearGradient id="SVGID_4_" gradientUnits="userSpaceOnUse" x1="419.35" y1="526.6678" x2="419.35" y2="-0.5312" gradientTransform="matrix(1 0 0 -1 0 502)">
								<stop  offset="0" style="stop-color:#FFFFFF"/>
								<stop  offset="1" style="stop-color:#EDEEF0"/>
							</linearGradient>
							<path class="st7" d="M-19.2,143.2c182.6,0,253.1-88.8,350.9-88.8c73.7,0,104.3,64,175.4,64c71.2,0,118.6-59.4,177.1-73.6
								c93.8-22.6,104.2,40,173.8,73.5v322.6H-19.2V143.2z"/>
						</g>
					</g>
				</g>
				<g>
					
						<image style="overflow:visible;enable-background:new    ;" width="3929" height="1267" xlink:href="95B10397.png"  transform="matrix(0.2398 0 0 0.2398 -55.6 5.2498)">
					</image>
				</g>
			</g>
		</g>
		<g>
			<defs>
				<rect id="SVGID_5_" width="750" height="500"/>
			</defs>
			<clipPath id="SVGID_6_">
				<use xlink:href="#SVGID_5_"  style="overflow:visible;"/>
			</clipPath>
			<g class="st8">
				<g class="st9">
					
						<image style="overflow:visible;enable-background:new    ;" width="3604" height="1250" xlink:href="95B10392.png"  transform="matrix(0.2392 0 0 0.2392 -71.2561 48.175)">
					</image>
				</g>
				<g>
					<g>
						<g class="st10">
							<path class="st6" d="M-18.2,147.7C163.6,34.5,283.5,121,365.7,171.3C543.1,279.7,655,111.2,772.6,130v338.9H-18.2V147.7z"/>
						</g>
						
							<linearGradient id="SVGID_7_" gradientUnits="userSpaceOnUse" x1="376.19" y1="523.2893" x2="376.19" y2="-4.5424" gradientTransform="matrix(1 0 0 -1 0 502)">
							<stop  offset="0" style="stop-color:#FFFFFF"/>
							<stop  offset="1" style="stop-color:#EDEEF0"/>
						</linearGradient>
						<path class="st11" d="M-19.2,149.7C162.6,36.5,282.5,123,364.7,173.3C542.1,281.7,654,113.2,771.6,132v338.9H-19.2V149.7z"/>
					</g>
				</g>
			</g>
		</g>
		<g>
			<defs>
				<rect id="SVGID_8_" width="750" height="500"/>
			</defs>
			<clipPath id="SVGID_9_">
				<use xlink:href="#SVGID_8_"  style="overflow:visible;"/>
			</clipPath>
			<g class="st12">
				<g class="st13">
					
						<image style="overflow:visible;enable-background:new    ;" width="3600" height="1446" xlink:href="95B10393.png"  transform="matrix(0.2388 0 0 0.2388 -58.7887 167.935)">
					</image>
				</g>
				<g>
					<g class="st3">
						<path class="st14" d="M-15.2,300.2c46-53.9,156.7-113.3,258.4-69.2c47.9,20.8,94.3,69.6,149.3,109.1
							c120.7,86.7,192.2-139.6,383.2-75.4v239.3H-15.2V300.2z"/>
						<path class="st14" d="M-16.2,302.2c46-53.9,156.7-113.3,258.4-69.2c47.9,20.8,94.3,69.6,149.3,109.1
							c120.7,86.7,192.2-139.6,383.2-75.4v239.3H-16.2V302.2z"/>
					</g>
					<g>
						<g>
							<g class="st5">
								<path class="st6" d="M-18.2,295.2c46-53.9,156.7-113.3,258.4-69.2c47.9,20.8,94.3,69.6,149.3,109.1
									c120.7,86.7,192.2-139.6,383.2-75.4v239.3H-18.2V295.2z"/>
							</g>
							
								<linearGradient id="SVGID_10_" gradientUnits="userSpaceOnUse" x1="376.19" y1="526.6679" x2="376.19" y2="-0.5309" gradientTransform="matrix(1 0 0 -1 0 502)">
								<stop  offset="0" style="stop-color:#FFFFFF"/>
								<stop  offset="1" style="stop-color:#EFF0F2"/>
							</linearGradient>
							<path class="st15" d="M-19.2,297.2c46-53.9,156.7-113.3,258.4-69.2c47.9,20.8,94.3,69.6,149.3,109.1
								c120.7,86.7,192.2-139.6,383.2-75.4v239.3H-19.2V297.2z"/>
						</g>
					</g>
				</g>
				<g>
					
						<image style="overflow:visible;enable-background:new    ;" width="3588" height="2079" xlink:href="95B1039D.png"  transform="matrix(0.2394 0 0 0.2394 -54.9245 178.015)">
					</image>
				</g>
			</g>
		</g>
		<g>
			<defs>
				<rect id="SVGID_11_" width="750" height="500"/>
			</defs>
			<clipPath id="SVGID_12_">
				<use xlink:href="#SVGID_11_"  style="overflow:visible;"/>
			</clipPath>
			<g class="st16">
				<g class="st17">
					
						<image style="overflow:visible;enable-background:new    ;" width="3600" height="908" xlink:href="95B1039F.png"  transform="matrix(0.2395 0 0 0.2395 -61.8485 316.495)">
					</image>
				</g>
				<g>
					<g>
						<g class="st5">
							<path class="st6" d="M-18.2,361.5c79.1,0,88.8,64,158.2,64s89.5-64,158.2-64s91.5,64,158.2,64c66.7,0,90.6-64,158.2-64
								s79.1,64,158.2,64v83.4H-18.2V361.5z"/>
						</g>
						
							<linearGradient id="SVGID_13_" gradientUnits="userSpaceOnUse" x1="376.19" y1="518.7836" x2="376.19" y2="-6.1562" gradientTransform="matrix(1 0 0 -1 0 502)">
							<stop  offset="0" style="stop-color:#EFF0F2"/>
							<stop  offset="1" style="stop-color:#FFFFFF"/>
						</linearGradient>
						<path class="st18" d="M-19.2,363.5c79.1,0,88.8,64,158.2,64s89.5-64,158.2-64s91.5,64,158.2,64c66.7,0,90.6-64,158.2-64
							s79.1,64,158.2,64v83.4H-19.2V363.5z"/>
					</g>
				</g>
			</g>
		</g>
		<g>
			<defs>
				<rect id="SVGID_14_" width="750" height="500"/>
			</defs>
			<clipPath id="SVGID_15_">
				<use xlink:href="#SVGID_14_"  style="overflow:visible;"/>
			</clipPath>
			<g class="st19">
				
					<image style="overflow:visible;opacity:0.65;enable-background:new    ;" width="2067" height="613" xlink:href="95B10390.png"  transform="matrix(0.2384 0 0 0.2384 -110.0215 -63.545)">
				</image>
				<g>
					<g>
						<g class="st10">
							<path class="st6" d="M262.9,30.8c29.2-14,54.4-26.2,77.9-26.2c13.8,0,25-11.2,25-25s-11.2-25-25-25
								c-35,0-66.4,15.1-99.6,31.1c-33.6,16.2-68.4,32.9-107.3,32.9C105.2,18.6,85,7.5,59.5-6.6C26.5-24.8-10.9-45.4-73-45.4
								c-13.8,0-25,11.2-25,25s11.2,25,25,25C-23.7,4.6,5,20.4,35.3,37.2c28,15.5,57,31.4,98.6,31.4C184.3,68.6,226,48.5,262.9,30.8
								z"/>
						</g>
						
							<linearGradient id="SVGID_16_" gradientUnits="userSpaceOnUse" x1="132.93" y1="543.7756" x2="132.93" y2="378.5132" gradientTransform="matrix(1 0 0 -1 0 502)">
							<stop  offset="1.050000e-02" style="stop-color:#FFFFFF"/>
							<stop  offset="1" style="stop-color:#EFF0F2"/>
						</linearGradient>
						<path class="st20" d="M261.9,32.8c29.2-14,54.4-26.2,77.9-26.2c13.8,0,25-11.2,25-25s-11.2-25-25-25
							c-35,0-66.4,15.1-99.6,31.1c-33.6,16.2-68.4,32.9-107.3,32.9C104.2,20.6,84,9.5,58.5-4.6C25.5-22.8-11.9-43.4-74-43.4
							c-13.8,0-25,11.2-25,25s11.2,25,25,25C-24.7,6.6,4,22.4,34.3,39.2c28,15.5,57,31.4,98.6,31.4C183.3,70.6,225,50.5,261.9,32.8z
							"/>
					</g>
				</g>
			</g>
		</g>
		<g>
			<defs>
				<rect id="SVGID_17_" width="750" height="500"/>
			</defs>
			<clipPath id="SVGID_18_">
				<use xlink:href="#SVGID_17_"  style="overflow:visible;"/>
			</clipPath>
			<g class="st21">
				
					<image style="overflow:visible;opacity:0.65;enable-background:new    ;" width="1746" height="825" xlink:href="95B10391.png"  transform="matrix(0.2391 0 0 0.2391 396.2419 150.415)">
				</image>
				<g>
					<g>
						<g class="st10">
							<path class="st6" d="M560.4,274.7c57.4-38.2,116.8-77.7,206.2-47.7c10.5,3.5,21.8-2.1,25.3-12.6s-2.1-21.8-12.6-25.3
								c-108-36.3-181.8,12.8-241.1,52.3c-34.6,23-64.5,42.9-93.7,42.2c-0.2,0-0.4,0-0.5,0c-10.8,0-19.7,8.6-20,19.5
								c-0.3,11,8.4,20.2,19.5,20.5c0.9,0,1.8,0,2.8,0C487,323.6,522.7,299.8,560.4,274.7z"/>
						</g>
						
							<linearGradient id="SVGID_19_" gradientUnits="userSpaceOnUse" x1="607.5308" y1="321.4826" x2="607.5308" y2="108.1496" gradientTransform="matrix(1 0 0 -1 0 502)">
							<stop  offset="1.050000e-02" style="stop-color:#FFFFFF"/>
							<stop  offset="1" style="stop-color:#EFF0F2"/>
						</linearGradient>
						<path class="st22" d="M559.4,276.7c57.4-38.2,116.8-77.7,206.2-47.7c10.5,3.5,21.8-2.1,25.3-12.6s-2.1-21.8-12.6-25.3
							c-108-36.3-181.8,12.8-241.1,52.3c-34.6,23-64.5,42.9-93.7,42.2c-0.2,0-0.4,0-0.5,0c-10.8,0-19.7,8.6-20,19.5
							c-0.3,11,8.4,20.2,19.5,20.5c0.9,0,1.8,0,2.8,0C486,325.6,521.7,301.8,559.4,276.7z"/>
					</g>
				</g>
			</g>
		</g>
		<g>
			<defs>
				<rect id="SVGID_20_" width="750" height="500"/>
			</defs>
			<clipPath id="SVGID_21_">
				<use xlink:href="#SVGID_20_"  style="overflow:visible;"/>
			</clipPath>
			<g class="st23">
				
					<image style="overflow:visible;opacity:0.65;enable-background:new    ;" width="958" height="354" xlink:href="95B10396.png"  transform="matrix(0.239 0 0 0.239 559.28 267.2324)">
				</image>
				<g>
					<g>
						<g class="st10">
							<path class="st6" d="M592.2,337.1c55-39.4,113.7-47.2,174.3-23.3c5.1,2,11-0.5,13-5.6c2-5.1-0.5-11-5.6-13
								c-67.3-26.6-132.4-17.9-193.3,25.6c-4.5,3.2-5.5,9.5-2.3,14c2,2.7,5,4.2,8.1,4.2C588.4,339,590.4,338.4,592.2,337.1z"/>
						</g>
						
							<linearGradient id="SVGID_22_" gradientUnits="userSpaceOnUse" x1="677.2518" y1="219.0501" x2="677.2518" y2="133.7556" gradientTransform="matrix(1 0 0 -1 0 502)">
							<stop  offset="1.050000e-02" style="stop-color:#FFFFFF"/>
							<stop  offset="1" style="stop-color:#EFF0F2"/>
						</linearGradient>
						<path class="st24" d="M591.2,339.1c55-39.4,113.7-47.2,174.3-23.3c5.1,2,11-0.5,13-5.6c2-5.1-0.5-11-5.6-13
							c-67.3-26.6-132.4-17.9-193.3,25.6c-4.5,3.2-5.5,9.5-2.3,14c2,2.7,5,4.2,8.1,4.2C587.4,341,589.4,340.4,591.2,339.1z"/>
					</g>
				</g>
			</g>
		</g>
		<g>
			<defs>
				<rect id="SVGID_23_" width="750" height="500"/>
			</defs>
			<clipPath id="SVGID_24_">
				<use xlink:href="#SVGID_23_"  style="overflow:visible;"/>
			</clipPath>
			<g class="st25">
				
					<image style="overflow:visible;enable-background:new    ;" width="1929" height="704" xlink:href="A295849E.png"  transform="matrix(0.2376 0 0 0.2376 -59.4184 89.935)">
				</image>
			</g>
		</g>
		<g>
			<defs>
				<rect id="SVGID_25_" width="750" height="500"/>
			</defs>
			<clipPath id="SVGID_26_">
				<use xlink:href="#SVGID_25_"  style="overflow:visible;"/>
			</clipPath>
			<g class="st26">
				
					<image style="overflow:visible;opacity:0.85;enable-background:new    ;" width="1775" height="554" xlink:href="A2958499.png"  transform="matrix(0.237 0 0 0.237 -40.0687 103.975)">
				</image>
				<g>
					<g>
						<g class="st10">
							<path class="st6" d="M364.3,216.5c2.8-4.7,1.4-10.9-3.2-13.8c-4.1-2.6-8.3-5.2-12.6-7.9c-40-25.4-89.8-57-151.1-68.3
								c-72.2-13.3-144.4,3.9-221,52.8c-4.6,2.9-6,9.1-3.1,13.8c2.9,4.7,8.9,6.1,13.4,3.2c163.1-104.1,272-34.9,351.5,15.6
								c4.3,2.7,8.5,5.4,12.7,8c1.6,1,3.3,1.5,5.1,1.5C359.2,221.3,362.4,219.6,364.3,216.5z"/>
						</g>
						
							<linearGradient id="SVGID_27_" gradientUnits="userSpaceOnUse" x1="167.7368" y1="376.5286" x2="167.7368" y2="232.7415" gradientTransform="matrix(1 0 0 -1 0 502)">
							<stop  offset="1.050000e-02" style="stop-color:#FFFFFF"/>
							<stop  offset="1" style="stop-color:#EFF0F2"/>
						</linearGradient>
						<path class="st27" d="M363.3,218.5c2.8-4.7,1.4-10.9-3.2-13.8c-4.1-2.6-8.3-5.2-12.6-7.9c-40-25.4-89.8-57-151.1-68.3
							c-72.2-13.3-144.4,3.9-221,52.8c-4.6,2.9-6,9.1-3.1,13.8c2.9,4.7,8.9,6.1,13.4,3.2c163.1-104.1,272-34.9,351.5,15.6
							c4.3,2.7,8.5,5.4,12.7,8c1.6,1,3.3,1.5,5.1,1.5C358.2,223.3,361.4,221.6,363.3,218.5z"/>
					</g>
				</g>
			</g>
		</g>
	</g>
</g>
</svg>
