<?xml version="1.0" encoding="utf-8"?>
<!-- Generator: Adobe Illustrator 23.0.5, SVG Export Plug-In . SVG Version: 6.00 Build 0)  -->
<svg version="1.1" id="Layer_1" xmlns="http://www.w3.org/2000/svg" xmlns:xlink="http://www.w3.org/1999/xlink" x="0px" y="0px"
	 viewBox="0 0 156 54" style="enable-background:new 0 0 156 54;" xml:space="preserve">
<style type="text/css">
	.st0{fill:#231F20;}
	#outline{
		-webkit-box-shadow: 10px 10px 5px 0px rgba(0,0,0,0.75);
-moz-box-shadow: 10px 10px 5px 0px rgba(0,0,0,0.75);
box-shadow: 10px 10px 5px 0px rgba(0,0,0,0.75);
	}
</style>
<g>
	
		<image style="overflow:visible;opacity:0.75;" width="80" height="35" xlink:href="FA445123.png"  transform="matrix(1 0 0 1 39 -2)">
	</image>
	<g>
		<g>
			<g>
				<path class="st0" d="M44.5,17.1c0.5,2.3,2,3.6,4.9,3.6c3.1,0,4.4-1.6,4.4-3.4c0-1.9-0.9-3.1-4.6-4.1c-3.6-0.9-5.2-2.1-5.2-4.6
					c0-2.3,1.6-4.4,5.3-4.4c3.8,0,5.4,2.3,5.6,4.4h-1.4c-0.4-1.8-1.6-3.2-4.3-3.2c-2.5,0-3.8,1.2-3.8,3.1c0,1.9,1.1,2.6,4.3,3.4
					c4.8,1.2,5.6,3.1,5.6,5.2c0,2.5-1.8,4.7-5.8,4.7c-4.3,0-5.9-2.5-6.2-4.8H44.5z"/>
				<path class="st0" d="M58.7,15.7c0,3.2,1.6,5.1,4,5.1c2.3,0,3.1-1.3,3.5-2.3h1.3c-0.5,1.6-1.8,3.5-4.8,3.5
					c-3.7,0-5.2-3.2-5.2-6.3c0-3.5,1.7-6.5,5.3-6.5c3.8,0,5,3.3,5,5.6c0,0.3,0,0.7,0,1H58.7z M66.5,14.6c0-2.4-1.4-4.4-3.8-4.4
					c-2.5,0-3.7,1.8-4,4.4H66.5z"/>
				<path class="st0" d="M68.9,9.4h2.3V5.6h1.2v3.8h2.9v1.2h-2.9v8c0,1.4,0.3,2.2,1.5,2.2c0.4,0,0.9,0,1.3-0.1v1.1
					c-0.4,0.2-1,0.2-1.5,0.2c-1.6,0-2.5-0.8-2.5-2.8v-8.6h-2.3V9.4z"/>
				<path class="st0" d="M99.5,13.8c0-3.4,0-6.6,0.1-8.3h-0.1c-0.7,2.3-4.2,10.8-6.4,16.2h-1.3c-1.6-4.2-5.3-13.6-6-16.2h0
					c0.1,2,0.2,6,0.2,8.9v7.3h-1.3V4.5h2c2.4,5.9,5.3,13.6,6,15.6h0c0.4-1.3,3.8-9.8,6.2-15.6h2v17.2h-1.3V13.8z"/>
				<path class="st0" d="M105,9.4c2.5,7,3.6,9.9,4,11.3h0c0.5-1.5,1.5-4.4,3.9-11.3h1.3l-4.6,13c-1.3,3.6-2.2,4.4-4.4,4.4
					c-0.4,0-0.7,0-1.1-0.1v-1.2c0.4,0,0.7,0.1,1.1,0.1c1.8,0,2.3-0.9,3.2-3.4l-4.7-12.8H105z"/>
			</g>
		</g>
	</g>
</g>
<g>
	
		<image style="overflow:visible;opacity:0.75;" width="121" height="41" xlink:href="FA445121.png"  transform="matrix(1 0 0 1 39 18)">
	</image>
	<g>
		<g>
			<g>
				<path class="st0" d="M60.7,41.1c-1,3.4-3.6,6-8.1,6c-6.2,0-9.5-4.9-9.5-11c0-5.8,3.2-11.2,9.5-11.2c4.7,0,7.4,2.6,8.1,6.2H59
					c-1-2.8-2.8-4.7-6.6-4.7c-5.4,0-7.6,4.9-7.6,9.6c0,4.6,2.2,9.5,7.8,9.5c3.5,0,5.3-1.8,6.4-4.5H60.7z"/>
				<path class="st0" d="M64.5,24.1h1.5v3h-1.5V24.1z M64.5,31.4h1.5v15.5h-1.5V31.4z"/>
				<path class="st0" d="M68.8,31.4h2.9v-4.8h1.5v4.8h3.7v1.5h-3.7v10c0,1.7,0.4,2.7,1.9,2.7c0.5,0,1.1,0,1.6-0.2v1.4
					c-0.5,0.2-1.3,0.3-1.9,0.3c-2,0-3.1-1-3.1-3.5V32.9h-2.9V31.4z"/>
				<path class="st0" d="M90.7,44c0,1.4,0.1,2.4,0.2,2.9h-1.5c-0.1-0.4-0.2-1.1-0.3-2.4c-0.5,1.1-1.9,2.8-5.1,2.8
					c-3.6,0-5.1-2.3-5.1-4.6c0-3.4,2.6-4.9,7.3-4.9c1.3,0,2.3,0,2.9,0v-1.6c0-1.5-0.5-3.6-4-3.6c-3.1,0-3.6,1.6-3.9,2.9h-1.5
					c0.2-1.7,1.2-4.3,5.5-4.3c3.5,0,5.5,1.5,5.5,4.9V44z M89.2,39c-0.6,0-2,0-3,0c-3.4,0-5.6,0.9-5.6,3.6c0,1.9,1.4,3.3,3.6,3.3
					c4.4,0,5-2.9,5-6.3V39z"/>
				<path class="st0" d="M93.4,31.4h2.9v-4.8h1.5v4.8h3.7v1.5h-3.7v10c0,1.7,0.4,2.7,1.9,2.7c0.5,0,1.1,0,1.6-0.2v1.4
					c-0.5,0.2-1.3,0.3-1.9,0.3c-2,0-3.1-1-3.1-3.5V32.9h-2.9V31.4z"/>
				<path class="st0" d="M104.7,24.1h1.5v3h-1.5V24.1z M104.7,31.4h1.5v15.5h-1.5V31.4z"/>
				<path class="st0" d="M123.8,39.1c0,4.3-2.4,8.1-7,8.1c-4.2,0-6.8-3.4-6.8-8.1c0-4.4,2.4-8.1,6.9-8.1
					C121.1,31.1,123.8,34.3,123.8,39.1z M111.7,39.2c0,3.7,2,6.6,5.3,6.6c3.3,0,5.2-2.8,5.2-6.6c0-3.6-1.9-6.6-5.3-6.6
					C113.4,32.5,111.7,35.5,111.7,39.2z"/>
				<path class="st0" d="M127.7,35.3c0-1.4,0-2.7,0-3.9h1.5c0.1,0.5,0.1,2.5,0.1,2.9c0.7-1.6,1.9-3.3,5.1-3.3c2.8,0,5.2,1.5,5.2,5.8
					v10H138v-9.8c0-2.8-1.1-4.5-3.8-4.5c-3.7,0-4.9,3.1-4.9,6.4v7.9h-1.5V35.3z"/>
				<path class="st0" d="M144.6,42.6c0.5,2,1.9,3.2,4.4,3.2c2.8,0,3.9-1.3,3.9-3c0-1.8-0.7-2.6-4.2-3.5c-4-1-5-2.2-5-4.2
					c0-2.1,1.6-4.1,5.1-4.1c3.5,0,5.2,2.1,5.4,4.3h-1.5c-0.3-1.3-1.3-2.9-3.9-2.9c-2.7,0-3.5,1.3-3.5,2.6c0,1.4,0.7,2.1,3.8,2.9
					c4.4,1.1,5.4,2.5,5.4,4.8c0,2.8-2.3,4.5-5.5,4.5c-3.5,0-5.5-1.9-5.9-4.6H144.6z"/>
			</g>
		</g>
	</g>
</g>
<g id="outline">
	
		<image style="overflow:visible;opacity:0.75;" width="48" height="55" xlink:href="FA445127.png"  transform="matrix(1 0 0 1 -2 1)">
	</image>
	<g>
		<g>
			<path d="M9.6,14.3h17.4c0.4,0,0.8-0.4,0.8-0.8s-0.4-0.8-0.8-0.8H9.6c-0.4,0-0.8,0.4-0.8,0.8S9.1,14.3,9.6,14.3z"/>
			<path d="M9.6,19h17.4c0.4,0,0.8-0.4,0.8-0.8c0-0.4-0.4-0.8-0.8-0.8H9.6c-0.4,0-0.8,0.4-0.8,0.8C8.8,18.6,9.1,19,9.6,19z"/>
			<path d="M9.6,23.7h17.4c0.4,0,0.8-0.4,0.8-0.8c0-0.4-0.4-0.8-0.8-0.8H9.6c-0.4,0-0.8,0.4-0.8,0.8C8.8,23.4,9.1,23.7,9.6,23.7z"/>
			<path d="M9.6,28.5h17.4c0.4,0,0.8-0.4,0.8-0.8c0-0.4-0.4-0.8-0.8-0.8H9.6c-0.4,0-0.8,0.4-0.8,0.8C8.8,28.1,9.1,28.5,9.6,28.5z"/>
			<path d="M9.6,33.2h6.3c0.4,0,0.8-0.4,0.8-0.8s-0.4-0.8-0.8-0.8H9.6c-0.4,0-0.8,0.4-0.8,0.8S9.1,33.2,9.6,33.2z"/>
			<path d="M40.8,22.7c-1.1-0.7-2.6-0.3-3.2,0.8l-1.9,3.2V7.2c0-0.4-0.4-0.8-0.8-0.8h-6c0,0-2.4-2.4-2.5-2.3c-0.1,0-0.2,0-0.2,0H3.3
				C2.8,4,2.5,4.4,2.5,4.8v2.5c-1.7,0.4-2.7,2.2-2.3,3.8c0.3,1.1,1.2,2,2.3,2.3v1.8c-1.7,0.4-2.7,2.2-2.3,3.8c0.3,1.1,1.2,2,2.3,2.3
				V23c-1.7,0.4-2.7,2.2-2.3,3.8c0.3,1.1,1.2,2,2.3,2.3v1c-1.7,0.4-2.7,2.2-2.3,3.8c0.3,1.1,1.2,2,2.3,2.3v4.8
				c0,0.4,0.4,0.8,0.8,0.8H4v2.4c0,0.4,0.4,0.8,0.8,0.8h20.1L24.4,46c0,0.1-0.1,0.2-0.1,0.3c0,0,0,0,0,0l0,0v0l-0.6,4.2
				c-0.1,0.4,0.2,0.8,0.7,0.9c0.2,0,0.4,0,0.6-0.2l3.4-2.6c0.2-0.2,0.3-0.3,0.3-0.4l1.8-3.1h4.4c0.4,0,0.8-0.4,0.8-0.8v-8.1l6-10.2
				C42.3,24.8,41.9,23.3,40.8,22.7z M39.4,23.9c0.4-0.1,0.9,0.1,1,0.6c0.1,0.2,0,0.4-0.1,0.6l-0.4,0.7L38.5,25l0.4-0.7
				C39,24.1,39.2,24,39.4,23.9z M27.5,46.9l-1.4-0.8l10.4-17.7l1.4,0.8L27.5,46.9z M26.9,6.7l2.8,2.8h-2.8V6.7z M37.3,27l0.4-0.7
				l1.4,0.8l-0.4,0.7L37.3,27z M34.1,7.9v21.3c0,0.1,0,0.1,0,0.2l-1.6,2.7V10.3c0-0.2-0.1-0.4-0.2-0.6l0,0l-1.8-1.8H34.1z M4,5.6
				h21.3v4.7c0,0.4,0.4,0.8,0.8,0.8h4.7v23.7l-3.2,5.5H4v-4C5.2,36,6,35.1,6.3,34c0.1-0.4-0.1-0.9-0.6-1s-0.9,0.1-1,0.6l0,0
				c-0.1,0.4-0.4,0.8-0.7,1v-5.4c1.1-0.3,2-1.2,2.3-2.3c0.1-0.4-0.1-0.9-0.6-1c-0.4-0.1-0.9,0.1-1,0.6l0,0c-0.1,0.4-0.4,0.8-0.7,1
				v-6.2C5.2,21,6,20.1,6.3,19c0.1-0.4-0.1-0.9-0.6-1s-0.9,0.1-1,0.6l0,0c-0.1,0.4-0.4,0.8-0.7,1v-6.2c1.1-0.3,2-1.2,2.3-2.3
				c0.1-0.4-0.1-0.9-0.6-1c-0.4-0.1-0.9,0.1-1,0.6c-0.1,0.4-0.4,0.8-0.7,1V5.6z M1.7,10.3c0-0.6,0.3-1.1,0.8-1.4v2.7
				C2,11.4,1.7,10.9,1.7,10.3z M1.7,18.2c0-0.6,0.3-1.1,0.8-1.4v2.7C2,19.3,1.7,18.8,1.7,18.2z M1.7,26.1c0-0.6,0.3-1.1,0.8-1.4v2.7
				C2,27.2,1.7,26.7,1.7,26.1z M1.7,33.2c0-0.6,0.3-1.1,0.8-1.4v2.7C2,34.3,1.7,33.8,1.7,33.2z M5.6,43.5v-1.6h21.1l-0.9,1.6H5.6z
				 M25.6,47.7l0.7,0.4l-0.9,0.7L25.6,47.7z M34.1,43.5h-2.7l2.7-4.7V43.5z"/>
		</g>
	</g>
</g>
</svg>
